<svg width="97" height="121" viewBox="0 0 97 121" fill="none" xmlns="http://www.w3.org/2000/svg">
<path d="M48.2214 12.0553C58.155 12.0553 66.3044 20.2048 66.3044 30.1384V48.2214H30.1384V30.1384C30.1384 20.2048 38.2878 12.0553 48.2214 12.0553ZM78.3597 48.2214V30.1384C78.3597 13.5502 64.8095 0 48.2214 0C31.6332 0 18.083 13.5502 18.083 30.1384V48.2214H12.0553C8.85807 48.2214 5.79174 49.4915 3.53093 51.7523C1.27011 54.0131 0 57.0794 0 60.2767V108.498C0 111.695 1.27011 114.762 3.53093 117.023C5.79174 119.283 8.85807 120.553 12.0553 120.553H84.3874C87.5847 120.553 90.651 119.283 92.9118 117.023C95.1726 114.762 96.4427 111.695 96.4427 108.498V60.2767C96.4427 57.0794 95.1726 54.0131 92.9118 51.7523C90.651 49.4915 87.5847 48.2214 84.3874 48.2214H78.3597ZM12.0553 60.2767H84.3874V108.498H12.0553V60.2767Z" fill="#999999"/>
</svg>
