<svg width="19" height="21" viewBox="0 0 19 21" fill="none" xmlns="http://www.w3.org/2000/svg">
<path d="M9.32138 2.07142C8.22263 2.07142 7.16888 2.50789 6.39195 3.28482C5.61502 4.06176 5.17854 5.1155 5.17854 6.21425C5.17854 7.313 5.61502 8.36675 6.39195 9.14368C7.16888 9.92061 8.22263 10.3571 9.32138 10.3571C10.4201 10.3571 11.4739 9.92061 12.2508 9.14368C13.0277 8.36675 13.4642 7.313 13.4642 6.21425C13.4642 5.1155 13.0277 4.06176 12.2508 3.28482C11.4739 2.50789 10.4201 2.07142 9.32138 2.07142ZM3.10713 6.21425C3.10713 4.56613 3.76184 2.98551 4.92724 1.82011C6.09264 0.654714 7.67326 0 9.32138 0C10.9695 0 12.5501 0.654714 13.7155 1.82011C14.8809 2.98551 15.5356 4.56613 15.5356 6.21425C15.5356 7.86237 14.8809 9.44299 13.7155 10.6084C12.5501 11.7738 10.9695 12.4285 9.32138 12.4285C7.67326 12.4285 6.09264 11.7738 4.92724 10.6084C3.76184 9.44299 3.10713 7.86237 3.10713 6.21425ZM5.17854 16.5713C4.35448 16.5713 3.56417 16.8987 2.98147 17.4814C2.39877 18.0641 2.07142 18.8544 2.07142 19.6785C2.07142 19.9531 1.9623 20.2166 1.76806 20.4108C1.57383 20.6051 1.3104 20.7142 1.03571 20.7142C0.761022 20.7142 0.497585 20.6051 0.303352 20.4108C0.109119 20.2166 0 19.9531 0 19.6785C0 18.305 0.545595 16.9878 1.51676 16.0167C2.48793 15.0455 3.80511 14.4999 5.17854 14.4999H13.4642C14.8376 14.4999 16.1548 15.0455 17.126 16.0167C18.0972 16.9878 18.6428 18.305 18.6428 19.6785C18.6428 19.9531 18.5336 20.2166 18.3394 20.4108C18.1452 20.6051 17.8817 20.7142 17.607 20.7142C17.3324 20.7142 17.0689 20.6051 16.8747 20.4108C16.6805 20.2166 16.5713 19.9531 16.5713 19.6785C16.5713 18.8544 16.244 18.0641 15.6613 17.4814C15.0786 16.8987 14.2883 16.5713 13.4642 16.5713H5.17854Z" fill="#999999"/>
</svg>
